<svg width="16" height="18" viewBox="0 0 16 18" fill="none" xmlns="http://www.w3.org/2000/svg">
<path d="M15.6344 0.381994C15.5595 0.323657 15.4723 0.283138 15.3795 0.263511C15.2866 0.243883 15.1905 0.245662 15.0984 0.268712L5.09844 2.76871C4.96323 2.80251 4.84319 2.88053 4.75741 2.99038C4.67163 3.10022 4.62502 3.23559 4.625 3.37496V11.975C4.10362 11.6266 3.48078 11.4625 2.85543 11.5086C2.23008 11.5548 1.63809 11.8086 1.17352 12.2298C0.708955 12.6509 0.398449 13.2152 0.291339 13.8331C0.184229 14.4509 0.28666 15.0868 0.582356 15.6398C0.878053 16.1927 1.35006 16.631 1.92337 16.885C2.49669 17.139 3.13844 17.194 3.74665 17.0415C4.35487 16.889 4.89467 16.5376 5.28029 16.0431C5.66591 15.5487 5.87523 14.9395 5.875 14.3125V7.61324L14.625 5.42574V9.47496C14.1036 9.1266 13.4808 8.96246 12.8554 9.00863C12.2301 9.0548 11.6381 9.30862 11.1735 9.72977C10.709 10.1509 10.3984 10.7152 10.2913 11.3331C10.1842 11.9509 10.2867 12.5868 10.5824 13.1398C10.8781 13.6927 11.3501 14.131 11.9234 14.385C12.4967 14.639 13.1384 14.6941 13.7467 14.5415C14.3549 14.389 14.8947 14.0376 15.2803 13.5431C15.6659 13.0487 15.8752 12.4395 15.875 11.8125V0.874962C15.875 0.779904 15.8534 0.686093 15.8117 0.600668C15.77 0.515243 15.7093 0.440454 15.6344 0.381994ZM3.0625 15.875C2.75347 15.875 2.45138 15.7833 2.19443 15.6116C1.93747 15.4399 1.7372 15.1959 1.61894 14.9104C1.50068 14.6249 1.46974 14.3107 1.53003 14.0076C1.59032 13.7045 1.73913 13.4261 1.95765 13.2076C2.17617 12.9891 2.45458 12.8403 2.75768 12.78C3.06077 12.7197 3.37494 12.7506 3.66045 12.8689C3.94596 12.9872 4.18999 13.1874 4.36168 13.4444C4.53337 13.7013 4.625 14.0034 4.625 14.3125C4.625 14.7269 4.46038 15.1243 4.16736 15.4173C3.87433 15.7103 3.4769 15.875 3.0625 15.875ZM5.875 6.32418V3.86324L14.625 1.67574V4.13668L5.875 6.32418ZM13.0625 13.375C12.7535 13.375 12.4514 13.2833 12.1944 13.1116C11.9375 12.9399 11.7372 12.6959 11.6189 12.4104C11.5007 12.1249 11.4697 11.8107 11.53 11.5076C11.5903 11.2045 11.7391 10.9261 11.9576 10.7076C12.1762 10.4891 12.4546 10.3403 12.7577 10.28C13.0608 10.2197 13.3749 10.2506 13.6604 10.3689C13.946 10.4872 14.19 10.6874 14.3617 10.9444C14.5334 11.2013 14.625 11.5034 14.625 11.8125C14.625 12.2269 14.4604 12.6243 14.1674 12.9173C13.8743 13.2103 13.4769 13.375 13.0625 13.375Z" fill="#6667AB"/>
</svg>
